<svg width="512" height="512" viewBox="0 0 512 512" fill="none" xmlns="http://www.w3.org/2000/svg">
  <rect width="512" height="512" rx="100" fill="#0a0a0a"/>
  
  <!-- Web -->
  <g stroke="#00ff9d" stroke-width="4" stroke-opacity="0.3">
    <circle cx="256" cy="256" r="80"/>
    <circle cx="256" cy="256" r="140"/>
    <circle cx="256" cy="256" r="200"/>
    <line x1="256" y1="26" x2="256" y2="486"/>
    <line x1="26" y1="256" x2="486" y2="256"/>
    <line x1="93" y1="93" x2="419" y2="419"/>
    <line x1="419" y1="93" x2="93" y2="419"/>
  </g>

  <!-- Spider Body -->
  <g fill="#00ff9d">
     <ellipse cx="256" cy="280" rx="40" ry="50" />
     <circle cx="256" cy="210" r="25" />
  </g>
  
  <!-- Spider Legs -->
  <g stroke="#00ff9d" stroke-width="12" stroke-linecap="round" fill="none">
    <path d="M275 205 Q350 150 380 180" />
    <path d="M285 220 Q370 200 390 240" />
    <path d="M285 240 Q370 280 380 310" />
    <path d="M275 260 Q340 340 350 360" />

    <path d="M237 205 Q162 150 132 180" />
    <path d="M227 220 Q142 200 122 240" />
    <path d="M227 240 Q142 280 132 310" />
    <path d="M237 260 Q172 340 162 360" />
  </g>
  
  <!-- Eyes -->
  <circle cx="248" cy="205" r="4" fill="#0a0a0a"/>
  <circle cx="264" cy="205" r="4" fill="#0a0a0a"/>
</svg>