<svg width="512" height="512" viewBox="0 0 512 512" fill="none" xmlns="http://www.w3.org/2000/svg">
  <!-- Web Radial Spokes -->
  <line x1="256" y1="56" x2="256" y2="456" stroke="#00ff9d" stroke-width="32" stroke-linecap="round"/>
  <line x1="56" y1="256" x2="456" y2="256" stroke="#00ff9d" stroke-width="32" stroke-linecap="round"/>
  <line x1="114" y1="114" x2="398" y2="398" stroke="#00ff9d" stroke-width="32" stroke-linecap="round"/>
  <line x1="398" y1="114" x2="114" y2="398" stroke="#00ff9d" stroke-width="32" stroke-linecap="round"/>

  <!-- Web Connecting Arcs -->
  <path d="M114 114 Q256 40 398 114 Q472 256 398 398 Q256 472 114 398 Q40 256 114 114" stroke="#00ff9d" stroke-width="24" stroke-linecap="round" fill="none" stroke-linejoin="round"/>

  <!-- Spider Body - Masking the web behind it -->
  <circle cx="256" cy="256" r="85" fill="#0a0a0a"/>

  <!-- Spider Legs -->
  <g stroke="#00ff9d" stroke-width="24" stroke-linecap="round" fill="none">
    <path d="M220 230 C180 200 140 180 120 210"/>
    <path d="M210 250 C160 240 130 240 110 270"/>
    <path d="M210 270 C160 290 130 310 120 350"/>
    <path d="M230 300 C190 360 180 380 170 410"/>

    <path d="M292 230 C332 200 372 180 392 210"/>
    <path d="M302 250 C352 240 382 240 402 270"/>
    <path d="M302 270 C352 290 382 310 392 350"/>
    <path d="M282 300 C322 360 332 380 342 410"/>
  </g>

  <!-- Spider Body Parts -->
  <ellipse cx="256" cy="280" rx="45" ry="60" fill="#00ff9d"/>
  <circle cx="256" cy="215" r="35" fill="#00ff9d"/>
</svg>